<svg width="30" height="30" viewBox="0 0 30 30" fill="none" xmlns="http://www.w3.org/2000/svg">
<g clip-path="url(#clip0_723_148)">
<g clip-path="url(#clip1_723_148)">
<path d="M22.545 3.10029C23.7247 3.40067 24.7034 4.22188 25.204 5.33145L28.973 13.6844C29.4737 14.794 29.4418 16.0712 28.8865 17.1544L24.7058 25.3091C24.1505 26.3924 23.1321 27.1638 21.9389 27.405L12.9567 29.2208C11.7635 29.462 10.5255 29.1467 9.59297 28.3642L2.57301 22.4738C1.6405 21.6913 1.11505 20.5268 1.1454 19.3099L1.37386 10.1488C1.40421 8.93191 1.98705 7.79503 2.9574 7.06002L10.2623 1.52681C11.2326 0.791796 12.4848 0.538649 13.6645 0.839026L22.545 3.10029Z" fill="#DE6235"/>
<path d="M18.0988 10.4014L7.90252 15.5522C7.34455 15.8341 7.53571 16.6748 8.16071 16.6877L12.9698 16.7867C13.2516 16.7925 13.4914 16.9937 13.5461 17.2702L14.4787 21.9891C14.5999 22.6023 15.461 22.6446 15.6417 22.0462L18.9437 11.1104C19.0962 10.6054 18.5696 10.1636 18.0988 10.4014Z" fill="#F2F8FF"/>
</g>
</g>
<defs>
<clipPath id="clip0_723_148">
<rect width="30" height="30" fill="white"/>
</clipPath>
<clipPath id="clip1_723_148">
<rect width="30" height="30" fill="white" transform="translate(13 -6) rotate(40)"/>
</clipPath>
</defs>
</svg>
