<?xml version="1.0" standalone="no"?>
<!DOCTYPE svg PUBLIC "-//W3C//DTD SVG 20010904//EN"
 "http://www.w3.org/TR/2001/REC-SVG-20010904/DTD/svg10.dtd">
<svg version="1.0" xmlns="http://www.w3.org/2000/svg"
 width="700.000000pt" height="700.000000pt" viewBox="0 0 700.000000 700.000000"
 preserveAspectRatio="xMidYMid meet">
<metadata>
Created by potrace 1.14, written by Peter Selinger 2001-2017
</metadata>
<g transform="translate(0.000000,700.000000) scale(0.100000,-0.100000)"
fill="#000000" stroke="none">
<path d="M2845 6830 c-131 -17 -261 -62 -363 -124 -103 -62 -1815 -1364 -1885
-1434 -105 -103 -185 -229 -232 -369 -44 -128 -45 -150 -74 -1333 -29 -1155
-29 -1210 4 -1342 24 -94 116 -273 183 -353 41 -50 306 -278 892 -770 458
-385 865 -724 904 -754 87 -66 224 -134 331 -163 65 -17 108 -21 230 -21 l150
0 1090 221 c600 122 1124 234 1165 248 182 63 361 199 469 357 18 26 265 501
548 1054 350 681 525 1033 544 1092 56 175 59 359 9 540 -26 94 -927 2092
-987 2190 -119 191 -305 332 -528 400 -181 54 -2152 551 -2227 561 -84 11
-138 11 -223 0z m1506 -2265 c37 -20 69 -70 69 -111 0 -38 -774 -2606 -796
-2639 -19 -28 -72 -55 -111 -55 -35 0 -86 31 -109 66 -11 16 -59 234 -130 593
-61 313 -119 582 -129 600 -35 68 -33 68 -685 81 -640 13 -617 10 -664 73 -27
37 -28 111 -2 149 13 21 209 124 794 420 428 215 975 492 1217 615 466 236
481 241 546 208z"/>
</g>
</svg>
