<svg width="50" height="50" viewBox="0 0 50 50" fill="none" xmlns="http://www.w3.org/2000/svg">
  <title>motorcycle icon</title>
  <path d="M35.2484 16.9633V30.6881C35.2484 33.7706 33.087 36.3395 30.1801 37V41.7706C30.1801 42.6514 29.8075 43.4587 29.2112 44.0459C28.6149 44.633 27.795 45 26.9006 45H23.2484C22.354 45 21.5342 44.633 20.9379 44.0459C20.3416 43.4587 19.9689 42.6514 19.9689 41.7706V37C17.0621 36.2661 14.9752 33.6973 14.9752 30.6881V16.9633H17.5093C17.5093 16.6697 17.4348 16.4495 17.4348 16.156C17.4348 15.2752 17.5839 14.3945 17.882 13.5872C16.3168 13.1468 14.677 12.5596 13.1118 11.7523L12.8137 12.2661L7 8.81651L9.31056 5L15.1242 8.44954L14.8261 8.88991C16.4658 9.62385 18.1056 10.1376 19.8199 10.5046C21.236 9.18349 23.1739 8.37615 25.2609 8.37615C27.2733 8.37615 29.1366 9.11009 30.5528 10.4312C32.0435 10.0642 33.5342 9.55046 35.0994 8.88991L34.8758 8.44954L40.6894 5L43 8.81651L37.1863 12.2661L36.8882 11.7523C35.472 12.4128 34.0559 13 32.6398 13.367C32.9379 14.2477 33.1615 15.1284 33.1615 16.0826C33.1615 16.3761 33.1615 16.6697 33.087 16.8899H35.2484V16.9633ZM26.9006 28.5596H23.2484H23.1739C23.1739 28.5596 23.1739 28.5596 23.1739 28.633V41.7706V41.844C23.1739 41.844 23.1739 41.844 23.2484 41.844H26.9006H26.9752C26.9752 41.844 26.9752 41.844 26.9752 41.7706V28.633V28.5596C26.9006 28.5596 26.9006 28.5596 26.9006 28.5596ZM25.2609 11.4587C22.5776 11.4587 20.4907 13.5872 20.4907 16.156C20.4907 18.7982 22.6522 20.8532 25.2609 20.8532C27.9441 20.8532 30.0311 18.7248 30.0311 16.156C30.0311 13.5138 27.8696 11.4587 25.2609 11.4587Z" fill="currentColor"/>
</svg>
