<svg width="50" height="50" viewBox="0 0 50 50" fill="none" xmlns="http://www.w3.org/2000/svg">
  <title>truck icon</title>
  <path d="M39.4793 17.4228V1H10.5207V17.4228L9 28.6384V43.459H10.3223V49H15.2149V43.459H34.7851V49H39.6777V43.459H41V28.6384L39.4793 17.4228ZM15.1488 39.1196C13.4959 39.1196 12.1074 37.7177 12.1074 36.0487C12.1074 34.3797 13.4959 32.9777 15.1488 32.9777C16.8017 32.9777 18.1901 34.3797 18.1901 36.0487C18.1901 37.7177 16.8017 39.1196 15.1488 39.1196ZM34.8512 39.1196C33.1322 39.1196 31.8099 37.7177 31.8099 36.0487C31.8099 34.3797 33.1984 32.9777 34.8512 32.9777C36.5041 32.9777 37.8926 34.3797 37.8926 36.0487C37.8926 37.7177 36.5703 39.1196 34.8512 39.1196ZM12.1074 27.9708L14.0909 17.4228H15.0826H35.1157H35.9752L37.9587 27.9708H12.1074Z" fill="currentColor"/>
</svg>
