<svg width="50" height="50" viewBox="0 0 50 50" fill="none" xmlns="http://www.w3.org/2000/svg">
<path d="M41.6913 5.81502C41.6913 4.28512 40.381 3 38.821 3H11.3038C9.74384 3 8.4335 4.28512 8.4335 5.81502L6 23.4395V40.5744H7.55993V47H13.3629V40.5744H36.6371V47H42.4401V40.5744H44V23.4395L41.6913 5.81502ZM19.665 5.01947H30.5846V8.14047H19.665V5.01947ZM13.3005 35.6175C11.3038 35.6175 9.68144 34.0264 9.68144 32.0682C9.68144 30.1099 11.3038 28.5188 13.3005 28.5188C15.2972 28.5188 16.9195 30.1099 16.9195 32.0682C16.9819 33.9652 15.3596 35.6175 13.3005 35.6175ZM36.8867 35.6175C34.89 35.6175 33.2677 34.0264 33.2677 32.0682C33.2677 30.1099 34.89 28.5188 36.8867 28.5188C38.8834 28.5188 40.5057 30.1099 40.5057 32.0682C40.5057 33.9652 38.8834 35.6175 36.8867 35.6175ZM9.68144 22.7051L12.1149 10.2211H38.0723L40.5057 22.7051H9.68144Z" fill="currentColor"/>
</svg>
