<svg width="50" height="50" viewBox="0 0 50 50" fill="none" xmlns="http://www.w3.org/2000/svg">
<path d="M45.9416 18.9057H43.2545L37.4131 8H12.5285L6.68707 18.964H4V35.7015H8.20584V42H13.8136V35.7015H36.1864V42H41.7942V35.7015H46V18.9057H45.9416ZM15.0403 12.1407H34.9013L38.5229 18.9057H11.4186L15.0403 12.1407ZM10.9513 30.8027C9.02364 30.8027 7.44645 29.2281 7.44645 27.3036C7.44645 25.3791 9.02364 23.8045 10.9513 23.8045C12.879 23.8045 14.4562 25.3791 14.4562 27.3036C14.4562 29.2281 12.879 30.8027 10.9513 30.8027ZM38.9903 30.8027C37.0626 30.8027 35.4854 29.2281 35.4854 27.3036C35.4854 25.3791 37.0626 23.8045 38.9903 23.8045C40.9179 23.8045 42.4951 25.3791 42.4951 27.3036C42.4951 29.2281 40.9179 30.8027 38.9903 30.8027Z" fill="currentColor"/>
</svg>
