<svg xmlns="http://www.w3.org/2000/svg" width="30" height="30" fill="none">
  <g clip-path="url(#A)">
    <path d="M16.09 1.962l8.256 3.976a2.75 2.75 0 0 1 1.488 1.866l2.039 8.934a2.75 2.75 0 0 1-.531 2.326l-5.714 7.165a2.75 2.75 0 0 1-2.15 1.035h-9.164a2.75 2.75 0 0 1-2.15-1.035l-5.714-7.165a2.75 2.75 0 0 1-.531-2.326L3.96 7.804a2.75 2.75 0 0 1 1.488-1.866l8.256-3.976a2.75 2.75 0 0 1 2.386 0z" stroke="#4d352c" stroke-width="2.5"/>
  </g>
  <defs>
    <clipPath id="A">
      <path fill="#fff" d="M0 0h30v30H0z"/>
    </clipPath>
  </defs>
</svg>