<svg xmlns="http://www.w3.org/2000/svg" width="30" height="30" fill="none">
  <g clip-path="url(#A)">
    <path d="M13.162.836a4 4 0 0 1 3.471 0l8.256 3.976a4 4 0 0 1 2.164 2.714l2.039 8.934a4 4 0 0 1-.772 3.384l-5.714 7.165a4 4 0 0 1-3.127 1.506h-9.164a4 4 0 0 1-3.127-1.506l-5.714-7.165a4 4 0 0 1-.772-3.384l2.039-8.934a4 4 0 0 1 2.164-2.714L13.162.836z" fill="#92b4e0"/>
    <path d="M14.449 9.287l-4.5 10.5c-.246.575.441 1.096.928.704l3.748-3.015a.6.6 0 0 1 .752 0l3.748 3.015c.487.392 1.174-.129.928-.704l-4.5-10.5a.6.6 0 0 0-1.103 0z" fill="#f2f8ff"/>
  </g>
  <defs>
    <clipPath id="A">
      <path fill="#fff" d="M0 0h30v30H0z"/>
    </clipPath>
  </defs>
</svg>