<svg width="30" height="30" viewBox="0 0 30 30" fill="none" xmlns="http://www.w3.org/2000/svg">
  <path fill-rule="evenodd" clip-rule="evenodd" d="M23.8042 7.06429L15.5478 3.08821C15.1366 2.89015 14.6575 2.89015 14.2462 3.08821L5.98978 7.06429C5.5785 7.26235 5.27979 7.63692 5.17822 8.08196L3.13905 17.0161C3.03748 17.4612 3.14408 17.9282 3.4287 18.2851L9.14231 25.4498C9.42692 25.8067 9.85857 26.0145 10.3151 26.0145H19.479C19.9355 26.0145 20.3671 25.8067 20.6517 25.4498L26.3653 18.2851C26.6499 17.9282 26.7565 17.4612 26.655 17.0161L24.6158 8.08196C24.5142 7.63692 24.2155 7.26235 23.8042 7.06429ZM16.6325 0.835791C15.5358 0.307625 14.2582 0.307625 13.1615 0.835791L4.90507 4.81186C3.80833 5.34003 3.01177 6.33888 2.7409 7.52566L0.701734 16.4598C0.43086 17.6466 0.715147 18.8921 1.47412 19.8439L7.18773 27.0085C7.9467 27.9602 9.09775 28.5145 10.3151 28.5145H19.479C20.6963 28.5145 21.8473 27.9602 22.6063 27.0085L28.3199 19.8439C29.0789 18.8921 29.3632 17.6466 29.0923 16.4598L27.0531 7.52566C26.7823 6.33888 25.9857 5.34003 24.8889 4.81186L16.6325 0.835791Z" fill="#1A120F"/>
</svg>
